<svg id="visual" viewBox="0 0 900 600" width="900" height="600" xmlns="http://www.w3.org/2000/svg" xmlns:xlink="http://www.w3.org/1999/xlink" version="1.1"><path d="M0 85L13.7 89C27.3 93 54.7 101 82 98C109.3 95 136.7 81 163.8 75C191 69 218 71 245.2 73C272.3 75 299.7 77 327 83C354.3 89 381.7 99 409 97C436.3 95 463.7 81 491 74C518.3 67 545.7 67 573 73C600.3 79 627.7 91 654.8 96C682 101 709 99 736.2 92C763.3 85 790.7 73 818 74C845.3 75 872.7 89 886.3 96L900 103L900 0L886.3 0C872.7 0 845.3 0 818 0C790.7 0 763.3 0 736.2 0C709 0 682 0 654.8 0C627.7 0 600.3 0 573 0C545.7 0 518.3 0 491 0C463.7 0 436.3 0 409 0C381.7 0 354.3 0 327 0C299.7 0 272.3 0 245.2 0C218 0 191 0 163.8 0C136.7 0 109.3 0 82 0C54.7 0 27.3 0 13.7 0L0 0Z" fill="#5c8567"></path><path d="M0 289L13.7 292C27.3 295 54.7 301 82 303C109.3 305 136.7 303 163.8 306C191 309 218 317 245.2 303C272.3 289 299.7 253 327 236C354.3 219 381.7 221 409 237C436.3 253 463.7 283 491 296C518.3 309 545.7 305 573 303C600.3 301 627.7 301 654.8 296C682 291 709 281 736.2 263C763.3 245 790.7 219 818 228C845.3 237 872.7 281 886.3 303L900 325L900 101L886.3 94C872.7 87 845.3 73 818 72C790.7 71 763.3 83 736.2 90C709 97 682 99 654.8 94C627.7 89 600.3 77 573 71C545.7 65 518.3 65 491 72C463.7 79 436.3 93 409 95C381.7 97 354.3 87 327 81C299.7 75 272.3 73 245.2 71C218 69 191 67 163.8 73C136.7 79 109.3 93 82 96C54.7 99 27.3 91 13.7 87L0 83Z" fill="#497354"></path><path d="M0 373L13.7 372C27.3 371 54.7 369 82 370C109.3 371 136.7 375 163.8 378C191 381 218 383 245.2 370C272.3 357 299.7 329 327 313C354.3 297 381.7 293 409 305C436.3 317 463.7 345 491 356C518.3 367 545.7 361 573 359C600.3 357 627.7 359 654.8 360C682 361 709 361 736.2 344C763.3 327 790.7 293 818 296C845.3 299 872.7 339 886.3 359L900 379L900 323L886.3 301C872.7 279 845.3 235 818 226C790.7 217 763.3 243 736.2 261C709 279 682 289 654.8 294C627.7 299 600.3 299 573 301C545.7 303 518.3 307 491 294C463.7 281 436.3 251 409 235C381.7 219 354.3 217 327 234C299.7 251 272.3 287 245.2 301C218 315 191 307 163.8 304C136.7 301 109.3 303 82 301C54.7 299 27.3 293 13.7 290L0 287Z" fill="#366142"></path><path d="M0 475L13.7 474C27.3 473 54.7 471 82 477C109.3 483 136.7 497 163.8 505C191 513 218 515 245.2 513C272.3 511 299.7 505 327 497C354.3 489 381.7 479 409 482C436.3 485 463.7 501 491 508C518.3 515 545.7 513 573 513C600.3 513 627.7 515 654.8 513C682 511 709 505 736.2 498C763.3 491 790.7 483 818 487C845.3 491 872.7 507 886.3 515L900 523L900 377L886.3 357C872.7 337 845.3 297 818 294C790.7 291 763.3 325 736.2 342C709 359 682 359 654.8 358C627.7 357 600.3 355 573 357C545.7 359 518.3 365 491 354C463.7 343 436.3 315 409 303C381.7 291 354.3 295 327 311C299.7 327 272.3 355 245.2 368C218 381 191 379 163.8 376C136.7 373 109.3 369 82 368C54.7 367 27.3 369 13.7 370L0 371Z" fill="#2f5439"></path><path d="M0 601L13.7 601C27.3 601 54.7 601 82 601C109.3 601 136.7 601 163.8 601C191 601 218 601 245.2 601C272.3 601 299.7 601 327 601C354.3 601 381.7 601 409 601C436.3 601 463.7 601 491 601C518.3 601 545.7 601 573 601C600.3 601 627.7 601 654.8 601C682 601 709 601 736.2 601C763.3 601 790.7 601 818 601C845.3 601 872.7 601 886.3 601L900 601L900 521L886.3 513C872.7 505 845.3 489 818 485C790.7 481 763.3 489 736.2 496C709 503 682 509 654.8 511C627.7 513 600.3 511 573 511C545.7 511 518.3 513 491 506C463.7 499 436.3 483 409 480C381.7 477 354.3 487 327 495C299.7 503 272.3 509 245.2 511C218 513 191 511 163.8 503C136.7 495 109.3 481 82 475C54.7 469 27.3 471 13.7 472L0 473Z" fill="#284731"></path></svg>